HIERARCHY
ROOT Hips
{
    OFFSET   0.000000   0.000000   0.000000
    CHANNELS 6 Xposition Yposition Zposition Zrotation Xrotation Yrotation
    JOINT Chest
    {
        OFFSET   0.000000   8.007240   0.000000
        CHANNELS 3 Zrotation Xrotation Yrotation
        JOINT Chest2
        {
            OFFSET   0.000000  22.077100   0.000000
            CHANNELS 3 Zrotation Xrotation Yrotation
            JOINT Neck
            {
                OFFSET   0.000000  23.254800   0.000000
                CHANNELS 3 Zrotation Xrotation Yrotation
                JOINT Head
                {
                    OFFSET   0.000000  14.370000   1.956600
                    CHANNELS 3 Zrotation Xrotation Yrotation
                    End Site
                    {
                        OFFSET   0.000000  19.566000   0.000000
                    }
                }
            }
            JOINT LeftCollar
            {
                OFFSET   3.911900  19.017000  -0.467064
                CHANNELS 3 Zrotation Xrotation Yrotation
                JOINT LeftShoulder
                {
                    OFFSET  10.383700   0.000000   0.000000
                    CHANNELS 3 Zrotation Xrotation Yrotation
                    JOINT LeftElbow
                    {
                        OFFSET  26.662100   0.001476   0.000517
                        CHANNELS 3 Zrotation Xrotation Yrotation
                        JOINT LeftWrist
                        {
                            OFFSET  28.869000  -0.000025  -0.000106
                            CHANNELS 3 Zrotation Xrotation Yrotation
                            JOINT LeftFinger0
                            {
                                OFFSET   2.044660  -2.323460   3.252850
                                CHANNELS 3 Zrotation Xrotation Yrotation
                                JOINT LeftFinger01
                                {
                                    OFFSET   3.088130   0.000000   0.000000
                                    CHANNELS 3 Zrotation Xrotation Yrotation
                                    JOINT LeftFinger02
                                    {
                                        OFFSET   2.639460   0.000000   0.000000
                                        CHANNELS 3 Zrotation Xrotation Yrotation
                                        End Site
                                        {
                                            OFFSET   2.582190   0.000000   0.000000
                                        }
                                    }
                                }
                            }
                            JOINT LeftFinger1
                            {
                                OFFSET   8.364480   0.000000   3.252850
                                CHANNELS 3 Zrotation Xrotation Yrotation
                                JOINT LeftFinger11
                                {
                                    OFFSET   4.646930   0.000000   0.000000
                                    CHANNELS 3 Zrotation Xrotation Yrotation
                                    JOINT LeftFinger12
                                    {
                                        OFFSET   2.323460   0.000000   0.000000
                                        CHANNELS 3 Zrotation Xrotation Yrotation
                                        End Site
                                        {
                                            OFFSET   2.273050   0.000000   0.000000
                                        }
                                    }
                                }
                            }
                            JOINT LeftFinger2
                            {
                                OFFSET   8.364490   0.000015   1.078090
                                CHANNELS 3 Zrotation Xrotation Yrotation
                                JOINT LeftFinger21
                                {
                                    OFFSET   5.111620   0.000000   0.000000
                                    CHANNELS 3 Zrotation Xrotation Yrotation
                                    JOINT LeftFinger22
                                    {
                                        OFFSET   2.788160   0.000016   0.000000
                                        CHANNELS 3 Zrotation Xrotation Yrotation
                                        End Site
                                        {
                                            OFFSET   2.727660   0.000000   0.000000
                                        }
                                    }
                                }
                            }
                            JOINT LeftFinger3
                            {
                                OFFSET   7.899780   0.000017  -1.078090
                                CHANNELS 3 Zrotation Xrotation Yrotation
                                JOINT LeftFinger31
                                {
                                    OFFSET   4.646930   0.000000   0.000000
                                    CHANNELS 3 Zrotation Xrotation Yrotation
                                    JOINT LeftFinger32
                                    {
                                        OFFSET   2.323470   0.000000   0.000000
                                        CHANNELS 3 Zrotation Xrotation Yrotation
                                        End Site
                                        {
                                            OFFSET   2.273050   0.000000   0.000000
                                        }
                                    }
                                }
                            }
                            JOINT LeftFinger4
                            {
                                OFFSET   7.435090   0.000000  -3.252850
                                CHANNELS 3 Zrotation Xrotation Yrotation
                                JOINT LeftFinger41
                                {
                                    OFFSET   3.717550   0.000000   0.000000
                                    CHANNELS 3 Zrotation Xrotation Yrotation
                                    JOINT LeftFinger42
                                    {
                                        OFFSET   1.858770   0.000000   0.000000
                                        CHANNELS 3 Zrotation Xrotation Yrotation
                                        End Site
                                        {
                                            OFFSET   1.818440   0.000000   0.000000
                                        }
                                    }
                                }
                            }
                        }
                    }
                }
            }
            JOINT RightCollar
            {
                OFFSET  -3.911900  19.017000  -0.467063
                CHANNELS 3 Zrotation Xrotation Yrotation
                JOINT RightShoulder
                {
                    OFFSET -10.383700   0.000019   0.000000
                    CHANNELS 3 Zrotation Xrotation Yrotation
                    JOINT RightElbow
                    {
                        OFFSET -26.662100   0.001175   0.000102
                        CHANNELS 3 Zrotation Xrotation Yrotation
                        JOINT RightWrist
                        {
                            OFFSET -28.869000   0.000016  -0.000079
                            CHANNELS 3 Zrotation Xrotation Yrotation
                            JOINT RightFinger0
                            {
                                OFFSET  -2.044660  -2.323490   3.252850
                                CHANNELS 3 Zrotation Xrotation Yrotation
                                JOINT RightFinger01
                                {
                                    OFFSET  -3.088140   0.000000   0.000000
                                    CHANNELS 3 Zrotation Xrotation Yrotation
                                    JOINT RightFinger02
                                    {
                                        OFFSET  -2.639460   0.000000   0.000000
                                        CHANNELS 3 Zrotation Xrotation Yrotation
                                        End Site
                                        {
                                            OFFSET  -2.582190   0.000000   0.000000
                                        }
                                    }
                                }
                            }
                            JOINT RightFinger1
                            {
                                OFFSET  -8.364480   0.000000   3.252850
                                CHANNELS 3 Zrotation Xrotation Yrotation
                                JOINT RightFinger11
                                {
                                    OFFSET  -4.646930   0.000000   0.000000
                                    CHANNELS 3 Zrotation Xrotation Yrotation
                                    JOINT RightFinger12
                                    {
                                        OFFSET  -2.323470   0.000000   0.000000
                                        CHANNELS 3 Zrotation Xrotation Yrotation
                                        End Site
                                        {
                                            OFFSET  -2.273050   0.000000   0.000000
                                        }
                                    }
                                }
                            }
                            JOINT RightFinger2
                            {
                                OFFSET  -8.364480   0.000000   1.078090
                                CHANNELS 3 Zrotation Xrotation Yrotation
                                JOINT RightFinger21
                                {
                                    OFFSET  -5.111620   0.000000   0.000000
                                    CHANNELS 3 Zrotation Xrotation Yrotation
                                    JOINT RightFinger22
                                    {
                                        OFFSET  -2.788160   0.000000   0.000000
                                        CHANNELS 3 Zrotation Xrotation Yrotation
                                        End Site
                                        {
                                            OFFSET  -2.727660   0.000000   0.000000
                                        }
                                    }
                                }
                            }
                            JOINT RightFinger3
                            {
                                OFFSET  -7.899780   0.000000  -1.078090
                                CHANNELS 3 Zrotation Xrotation Yrotation
                                JOINT RightFinger31
                                {
                                    OFFSET  -4.646930   0.000000   0.000000
                                    CHANNELS 3 Zrotation Xrotation Yrotation
                                    JOINT RightFinger32
                                    {
                                        OFFSET  -2.323470   0.000000   0.000000
                                        CHANNELS 3 Zrotation Xrotation Yrotation
                                        End Site
                                        {
                                            OFFSET  -2.273050   0.000000   0.000000
                                        }
                                    }
                                }
                            }
                            JOINT RightFinger4
                            {
                                OFFSET  -7.435090   0.000000  -3.252850
                                CHANNELS 3 Zrotation Xrotation Yrotation
                                JOINT RightFinger41
                                {
                                    OFFSET  -3.717550   0.000000   0.000000
                                    CHANNELS 3 Zrotation Xrotation Yrotation
                                    JOINT RightFinger42
                                    {
                                        OFFSET  -1.858770   0.000000   0.000000
                                        CHANNELS 3 Zrotation Xrotation Yrotation
                                        End Site
                                        {
                                            OFFSET  -1.818440   0.000000   0.000000
                                        }
                                    }
                                }
                            }
                        }
                    }
                }
            }
        }
    }
    JOINT LeftHip
    {
        OFFSET   9.783040   0.000000   0.000000
        CHANNELS 3 Zrotation Xrotation Yrotation
        JOINT LeftKnee
        {
            OFFSET   0.000032 -41.789100  -0.002222
            CHANNELS 3 Zrotation Xrotation Yrotation
            JOINT LeftAnkle
            {
                OFFSET   0.000087 -41.133200  -0.000135
                CHANNELS 3 Zrotation Xrotation Yrotation
                JOINT LeftToe
                {
                    OFFSET   0.000000  -6.358960  14.674500
                    CHANNELS 3 Zrotation Xrotation Yrotation
                    End Site
                    {
                        OFFSET   0.000000   0.000000   3.913200
                    }
                }
            }
        }
    }
    JOINT RightHip
    {
        OFFSET  -9.783040   0.000000   0.000000
        CHANNELS 3 Zrotation Xrotation Yrotation
        JOINT RightKnee
        {
            OFFSET   0.000047 -41.789100  -0.000896
            CHANNELS 3 Zrotation Xrotation Yrotation
            JOINT RightAnkle
            {
                OFFSET  -0.000117 -41.133300  -0.000248
                CHANNELS 3 Zrotation Xrotation Yrotation
                JOINT RightToe
                {
                    OFFSET   0.000000  -6.358970  14.674500
                    CHANNELS 3 Zrotation Xrotation Yrotation
                    End Site
                    {
                        OFFSET   0.000000   0.000000   3.913200
                    }
                }
            }
        }
    }
}
MOTION
Frames: 4
Frame Time:   0.016667
  1.599820  89.518800   0.474930  -1.956060  -2.529460   0.696553   1.535970   3.020510  -0.570496   3.108490   6.024440  -1.224540  -0.249916  -0.507585  -0.003681  -0.413445  -1.030820   3.058640  -7.710630   1.553890  -0.573660 -69.769400  17.647800  -4.407860  -2.737240  -5.449950 -10.776100   5.187140  -7.778170  10.665800  43.355600  31.665000 -67.042500 -22.126100  -0.000899   0.004432  -6.063060  -0.002174   0.005209 -32.597800   6.506420 -10.042600 -27.141000  -0.005265   0.011893 -19.009300  -0.004474  -0.013526 -28.276700   2.569060  -4.762750 -34.978400  -0.003596  -0.008006 -23.306900  -0.002406  -0.004894 -28.468100   0.277383  -0.539918 -35.845900  -0.006456   0.008212 -23.881300  -0.005903   0.000684 -35.444100   0.139867  -0.193672 -53.166500  -0.007591   0.001751 -35.408900  -0.004404  -0.003951   5.304310  -1.575660   9.950710  70.722500   2.692800  -3.548060   0.720947  -7.338910   6.273510  -8.763060 -13.509300  -0.429594 -40.213200  32.971500  65.360500  29.227900   0.008076  -0.004449   9.613950   0.003469   0.003851  32.230300   8.120730  12.627400  27.105400   0.001227   0.004682  18.973800  -0.007258  -0.002741  27.897100   4.744000   8.879070  33.924700  -0.001674  -0.001527  22.593900   0.004948   0.007869  28.242900   0.600037   1.116690  33.828000  -0.005301  -0.006010  22.529400  -0.005057  -0.004638  32.896200   0.690084   1.066700  49.353900  -0.000389  -0.000431  32.869700  -0.003108   0.001176   2.601010   5.517490   3.286250   0.471024   0.916181  11.271600  -2.634270  -3.071580   4.288510   0.000000   0.000000   0.000000   0.729999   2.010500  -3.501240   1.199740   3.702050 -10.431700  -2.330530  -2.831800  -3.158920   0.000000   0.000000   0.000000
  1.595590  89.518800   0.461110  -1.955680  -2.545330   0.704135   1.535970   3.027990  -0.568413   3.108490   6.039450  -1.220580  -0.249914  -0.507655  -0.003678  -0.413450  -1.030720   3.050000  -7.712030   1.548780  -0.573698 -69.769400  17.647000  -4.407850  -2.737880  -5.449680 -10.782700   5.192930  -7.778220  10.665400  43.355300  31.665600 -67.041400 -22.126100  -0.000899   0.004418  -6.063050  -0.002174   0.005213 -32.598000   6.504960 -10.041400 -27.140700  -0.005264   0.011893 -19.009200  -0.004472  -0.013525 -28.277000   2.567400  -4.759680 -34.978100  -0.003595  -0.008007 -23.306900  -0.002405  -0.004894 -28.468200   0.277211  -0.535721 -35.845800  -0.006455   0.008209 -23.878300  -0.005902   0.000685 -35.447700   0.139861  -0.193664 -53.171900  -0.007590   0.001754 -35.412600  -0.004404  -0.003949   5.304880  -1.579000   9.950820  70.723100   2.707350  -3.539510   0.723825  -7.354080   6.261130  -8.766520 -13.514800  -0.435830 -40.213600  32.982100  65.356200  29.238600   0.008069  -0.004443   9.619310   0.003471   0.003861  32.225400   8.120850  12.627300  27.101700   0.001228   0.004681  18.971300  -0.007257  -0.002742  27.899300   4.737090   8.866470  33.914500  -0.001674  -0.001527  22.587100   0.004948   0.007871  28.243400   0.588820   1.095900  33.811300  -0.005302  -0.006010  22.518400  -0.005057  -0.004637  32.890900   0.676471   1.045950  49.345700  -0.000388  -0.000429  32.864300  -0.003109   0.001175   2.598540   5.541650   3.294180   0.468188   0.875701  11.263800  -2.631330  -3.038780   4.283040  -0.000000   0.000000   0.000000   0.734765   1.999050  -3.505300   1.200870   3.725050 -10.432000  -2.336290  -2.831720  -3.158900  -0.000000   0.000000   0.000000
  1.588160  89.518800   0.438946  -1.955180  -2.571530   0.718019   1.535960   3.040130  -0.564906   3.108460   6.063830  -1.213900  -0.249904  -0.507725  -0.003670  -0.413370  -1.030500   3.036040  -7.715570   1.540840  -0.573785 -69.769400  17.646300  -4.407850  -2.738740  -5.449370 -10.791600   5.200850  -7.778300  10.665000  43.354200  31.667700 -67.039000 -22.126100  -0.000900   0.004400  -6.063050  -0.002174   0.005218 -32.599100   6.500660 -10.036100 -27.140500  -0.005261   0.011895 -19.009200  -0.004468  -0.013522 -28.277700   2.563120  -4.751750 -34.977700  -0.003590  -0.008011 -23.306900  -0.002401  -0.004894 -28.468200   0.277038  -0.527464 -35.845300  -0.006453   0.008204 -23.873000  -0.005899   0.000685 -35.451400   0.139846  -0.193642 -53.177400  -0.007586   0.001760 -35.416200  -0.004402  -0.003944   5.306000  -1.585410   9.951010  70.724200   2.734500  -3.526000   0.729996  -7.376670   6.236380  -8.771810 -13.520200  -0.446670 -40.214900  32.997900  65.359300  29.258400   0.008059  -0.004437   9.629220   0.003475   0.003871  32.220500   8.121050  12.627000  27.098100   0.001232   0.004680  18.968700  -0.007256  -0.002744  27.902200   4.727380   8.848470  33.904300  -0.001677  -0.001524  22.580200   0.004948   0.007875  28.244000   0.572496   1.065590  33.794700  -0.005302  -0.006012  22.507300  -0.005057  -0.004637  32.885900   0.656865   1.015790  49.337600  -0.000385  -0.000425  32.858800  -0.003112   0.001174   2.595950   5.567860   3.302120   0.465387   0.835228  11.252700  -2.629150  -2.998980   4.272930   0.000000   0.000000  -0.000000   0.742564   1.987600  -3.511320   1.203200   3.754830 -10.432500  -2.345700  -2.831210  -3.158880  -0.000000   0.000000   0.000000
  1.581530  89.518900   0.422885  -1.955140  -2.592120   0.731917   1.535930   3.049230  -0.562161   3.108360   6.082120  -1.208660  -0.249662  -0.507544  -0.003663  -0.412987  -1.030200   3.025230  -7.720920   1.535670  -0.573915 -69.768300  17.649500  -4.412000  -2.739060  -5.449650 -10.794500   5.203610  -7.778310  10.667700  43.351500  31.674600 -67.036400 -22.134200  -0.000900   0.004396  -6.067030  -0.002164   0.005220 -32.603600   6.491180 -10.021800 -27.142100  -0.005253   0.011898 -19.009100  -0.004464  -0.013520 -28.279100   2.554960  -4.735690 -34.977600  -0.003581  -0.008019 -23.306900  -0.002396  -0.004894 -28.468300   0.277522  -0.515423 -35.837700  -0.006451   0.008197 -23.866900  -0.005892   0.000685 -35.444200   0.139823  -0.193603 -53.166600  -0.007580   0.001767 -35.409000  -0.004399  -0.003938   5.310250  -1.591880   9.951200  70.725500   2.760530  -3.516610   0.737450  -7.388330   6.208080  -8.775280 -13.518300  -0.457117 -40.203400  33.005100  65.388500  29.277900   0.008056  -0.004439   9.638960   0.003476   0.003870  32.232300   8.121250  12.626900  27.107600   0.001237   0.004680  18.975400  -0.007256  -0.002746  27.903500   4.723400   8.840120  33.930300  -0.001682  -0.001517  22.597500   0.004948   0.007878  28.246600   0.564184   1.049940  33.824300  -0.005304  -0.006016  22.526900  -0.005057  -0.004637  32.904900   0.647515   1.000530  49.365700  -0.000381  -0.000417  32.877500  -0.003116   0.001170   2.600780   5.570270   3.299340   0.464620   0.845613  11.249000  -2.633440  -2.990830   4.262490   0.000000   0.000000   0.000000   0.748382   1.990800  -3.515130   1.204870   3.762680 -10.437100  -2.352960  -2.827410  -3.161780  -0.000000   0.000000  -0.000000
